<svg width="269" height="269" viewBox="0 0 269 269" fill="none" xmlns="http://www.w3.org/2000/svg">
<circle cx="134.5" cy="134.5" r="47.5" transform="rotate(-180 134.5 134.5)" fill="#B58900"/>
<path fill-rule="evenodd" clip-rule="evenodd" d="M179.057 218.265C162.06 224.824 142.052 221.247 128.34 207.536C114.872 194.068 111.182 174.525 117.271 157.728C111.273 160.043 105.651 163.619 100.813 168.457C82.2627 187.007 82.2627 217.083 100.813 235.632C119.363 254.182 149.438 254.182 167.988 235.632C173.07 230.55 176.76 224.603 179.057 218.265Z" fill="#002B36"/>
<path fill-rule="evenodd" clip-rule="evenodd" d="M50.4358 179.057C43.8767 162.06 47.4531 142.052 61.1647 128.34C74.6325 114.872 94.1756 111.182 110.972 117.271C108.658 111.273 105.082 105.651 100.243 100.813C81.6934 82.2627 51.618 82.2627 33.0681 100.813C14.5182 119.363 14.5182 149.438 33.0681 167.988C38.1503 173.07 44.0975 176.76 50.4358 179.057Z" fill="#002B36"/>
<path fill-rule="evenodd" clip-rule="evenodd" d="M89.6435 50.4358C106.64 43.8768 126.649 47.4531 140.361 61.1647C153.828 74.6325 157.518 94.1756 151.43 110.972C157.427 108.658 163.05 105.082 167.888 100.243C186.438 81.6934 186.438 51.6181 167.888 33.0682C149.338 14.5183 119.263 14.5183 100.713 33.0682C95.6307 38.1503 91.9409 44.0975 89.6435 50.4358Z" fill="#002B36"/>
<path fill-rule="evenodd" clip-rule="evenodd" d="M218.265 89.6435C224.824 106.64 221.248 126.649 207.536 140.361C194.068 153.828 174.525 157.518 157.728 151.43C160.043 157.427 163.619 163.05 168.457 167.888C187.007 186.438 217.083 186.438 235.632 167.888C254.182 149.338 254.182 119.263 235.632 100.713C230.55 95.6307 224.603 91.9409 218.265 89.6435Z" fill="#002B36"/>
<path fill-rule="evenodd" clip-rule="evenodd" d="M106.276 43.051C89.6196 50.4315 78 67.1088 78 86.5C78 105.546 89.21 121.974 105.392 129.546C99.5148 132.151 93.0103 133.597 86.168 133.597C59.9345 133.597 38.668 112.331 38.668 86.0974C38.668 59.8639 59.9345 38.5974 86.168 38.5974C93.3552 38.5974 100.17 40.1937 106.276 43.051Z" fill="#002B36"/>
<path fill-rule="evenodd" clip-rule="evenodd" d="M43.051 161.724C50.4315 178.38 67.1088 190 86.5 190C105.546 190 121.974 178.79 129.546 162.608C132.151 168.485 133.597 174.99 133.597 181.832C133.597 208.066 112.331 229.332 86.0974 229.332C59.8639 229.332 38.5974 208.066 38.5974 181.832C38.5974 174.645 40.1937 167.83 43.051 161.724Z" fill="#002B36"/>
<path fill-rule="evenodd" clip-rule="evenodd" d="M161.724 224.949C178.38 217.569 190 200.891 190 181.5C190 162.454 178.79 146.026 162.608 138.454C168.485 135.849 174.99 134.403 181.832 134.403C208.065 134.403 229.332 155.669 229.332 181.903C229.332 208.136 208.065 229.403 181.832 229.403C174.645 229.403 167.83 227.806 161.724 224.949Z" fill="#002B36"/>
<path fill-rule="evenodd" clip-rule="evenodd" d="M224.949 106.276C217.569 89.6196 200.891 78 181.5 78C162.454 78 146.026 89.21 138.454 105.392C135.849 99.5148 134.403 93.0103 134.403 86.168C134.403 59.9345 155.669 38.668 181.903 38.668C208.136 38.668 229.403 59.9345 229.403 86.168C229.403 93.3552 227.806 100.17 224.949 106.276Z" fill="#002B36"/>
</svg>
